<svg width="158" height="61" viewBox="0 0 158 61" fill="none" xmlns="http://www.w3.org/2000/svg">
<path d="M31.8506 5.87188V46.7971H21.7083V28.7367H10.0535V46.7971H0.000113755V5.87188H10.0535V23.9324H21.7083V5.87188H31.8506ZM50.2858 10.2313C49.1589 11.2989 47.765 11.8327 46.1043 11.8327C44.5029 11.8327 43.109 11.2693 41.9228 10.1423C40.7959 8.95611 40.2324 7.56228 40.2324 5.96085C40.2324 4.30011 40.7959 2.90628 41.9228 1.77936C43.0497 0.593116 44.4436 -3.69549e-06 46.1043 -3.69549e-06C47.765 -3.69549e-06 49.1589 0.593116 50.2858 1.77936C51.4127 2.90628 51.9762 4.32977 51.9762 6.04982C51.9762 7.71055 51.4127 9.10439 50.2858 10.2313ZM51.0865 46.7971H41.1221V14.7687H51.0865V46.7971ZM87.9404 3.64768V46.7971H81.1789L79.0436 43.7722C76.4932 46.3227 73.6462 47.5979 70.5027 47.5979C62.4956 47.5979 58.492 42.2301 58.492 31.4947C58.492 19.8102 62.9701 13.968 71.9262 13.968C74.1207 13.968 76.1374 14.4425 77.976 15.3915V4.89324L87.9404 3.64768ZM73.3497 42.7046C75.1884 42.7046 76.7305 41.9632 77.976 40.4804V20.2847C77.027 19.8102 76.0187 19.573 74.9511 19.573C70.562 19.573 68.3675 23.4282 68.3675 31.1388C68.3675 38.8493 70.0282 42.7046 73.3497 42.7046ZM124.036 32.1174H105.086C105.086 36.1506 105.531 38.9383 106.421 40.4804C107.31 41.9632 108.704 42.7046 110.602 42.7046C113.805 42.7046 115.407 40.9549 115.407 37.4555L123.592 37.6334C123.295 40.7177 122.138 43.1495 120.122 44.9288C118.105 46.7082 114.576 47.5979 109.535 47.5979C104.552 47.5979 100.905 46.204 98.5916 43.4164C96.3377 40.6287 95.2108 36.4176 95.2108 30.7829C95.2108 19.573 100.074 13.968 109.802 13.968C119.291 13.968 124.036 19.6619 124.036 31.0498V32.1174ZM114.428 27.2242C114.309 24.3179 113.894 22.2123 113.182 20.9075C112.53 19.5433 111.433 18.8612 109.891 18.8612C108.408 18.8612 107.31 19.4543 106.599 20.6406C105.946 21.7675 105.501 23.962 105.264 27.2242H114.428ZM157.585 14.7687L142.371 60.3203L135.076 59.5196L140.859 47.8648L126.713 14.7687H136.588L145.129 35.6762L151.891 14.7687H157.585Z" fill="url(#paint0_linear_48_23)"/>
<defs>
<linearGradient id="paint0_linear_48_23" x1="-4.62622" y1="-44.8958" x2="189.27" y2="-6.84698" gradientUnits="userSpaceOnUse">
<stop offset="0.637506" stop-color="#835527"/>
<stop offset="1" stop-color="#B37B3A"/>
</linearGradient>
</defs>
</svg>
